{
  "accessors": [
    {
      "bufferView": 2,
      "componentType": 5126,
      "count": 4491,
      "max": [
        180.33161926269531,
        203.97946166992188,
        148.29502868652344
      ],
      "min": [
        -179.3580322265625,
        -83.5062255859375,
        -60.197662353515625
      ],
      "type": "VEC3"
    },
    {
      "bufferView": 2,
      "byteOffset": 53892,
      "componentType": 5126,
      "count": 4491,
      "max": [
        0.99999558925628662,
        0.99998682737350464,
        0.99986612796783447
      ],
      "min": [
        -0.99998241662979126,
        -0.99958080053329468,
        -0.99972420930862427
      ],
      "type": "VEC3"
    },
    {
      "bufferView": 3,
      "componentType": 5126,
      "count": 4491,
      "max": [
        0.99998456239700317,
        0.99999547004699707,
        0.99929416179656982,
        1
      ],
      "min": [
        -0.99985498189926147,
        -0.99999916553497314,
        -0.99988389015197754,
        -1
      ],
      "type": "VEC4"
    },
    {
      "bufferView": 1,
      "componentType": 5126,
      "count": 4491,
      "max": [
        0.99885427951812744,
        0.99856537580490112
      ],
      "min": [
        0.00077763473382219672,
        -0.00031255371868610382
      ],
      "type": "VEC2"
    },
    {
      "bufferView": 0,
      "componentType": 5125,
      "count": 10326,
      "max": [
        4490
      ],
      "min": [
        0
      ],
      "type": "SCALAR"
    }
  ],
  "asset": {
    "extras": {
      "author": "lukas.boonen1 (https://sketchfab.com/lukas.boonen1)",
      "license": "CC-BY-4.0 (http://creativecommons.org/licenses/by/4.0/)",
      "source": "https://sketchfab.com/models/e3af6da393914cac9e60187d15033950",
      "title": "Gothabomber Stylised Plane"
    },
    "generator": "Sketchfab-3.18.5",
    "version": "2.0"
  },
  "bufferViews": [
    {
      "buffer": 0,
      "byteLength": 41304,
      "byteOffset": 0,
      "name": "floatBufferViews",
      "target": 34963
    },
    {
      "buffer": 0,
      "byteLength": 35928,
      "byteOffset": 41304,
      "byteStride": 8,
      "name": "floatBufferViews",
      "target": 34962
    },
    {
      "buffer": 0,
      "byteLength": 107784,
      "byteOffset": 77232,
      "byteStride": 12,
      "name": "floatBufferViews",
      "target": 34962
    },
    {
      "buffer": 0,
      "byteLength": 71856,
      "byteOffset": 185016,
      "byteStride": 16,
      "name": "floatBufferViews",
      "target": 34962
    }
  ],
  "buffers": [
    {
      "byteLength": 256872,
      "uri": "scene.bin"
    }
  ],
  "images": [
    {
      "uri": "textures/Standardmaterial_baseColor.jpeg"
    }
  ],
  "materials": [
    {
      "doubleSided": true,
      "emissiveFactor": [
        0,
        0,
        0
      ],
      "name": "Standardmaterial",
      "pbrMetallicRoughness": {
        "baseColorFactor": [
          1,
          1,
          1,
          1
        ],
        "baseColorTexture": {
          "index": 0,
          "texCoord": 0
        },
        "metallicFactor": 0,
        "roughnessFactor": 0.59999999999999998
      }
    }
  ],
  "meshes": [
    {
      "name": "Airplane_Standardmaterial_0",
      "primitives": [
        {
          "attributes": {
            "NORMAL": 1,
            "POSITION": 0,
            "TANGENT": 2,
            "TEXCOORD_0": 3
          },
          "indices": 4,
          "material": 0,
          "mode": 4
        }
      ]
    }
  ],
  "nodes": [
    {
      "children": [
        1
      ],
      "name": "RootNode (gltf orientation matrix)",
      "rotation": [
        -0.70710678118654746,
        -0,
        -0,
        0.70710678118654757
      ]
    },
    {
      "children": [
        2
      ],
      "name": "RootNode (model correction matrix)"
    },
    {
      "children": [
        3
      ],
      "matrix": [
        1,
        0,
        0,
        0,
        0,
        0,
        1,
        0,
        0,
        -1,
        0,
        0,
        0,
        0,
        0,
        1
      ],
      "name": "Gothabomber Stylised Plane.fbx"
    },
    {
      "children": [
        4
      ],
      "name": "RootNode"
    },
    {
      "children": [
        5
      ],
      "matrix": [
        0.99997109660910277,
        0.0073389350793443935,
        0.0019864486627003504,
        0,
        -0.00033053046420101996,
        0.30298623469180275,
        -0.9529948752941414,
        0,
        -0.007595834121451755,
        0.95296667392893919,
        0.30297990310384348,
        0,
        0,
        39.948646545410156,
        -1.50323486328125,
        1
      ],
      "name": "Airplane"
    },
    {
      "mesh": 0,
      "name": "Airplane_Standardmaterial_0"
    }
  ],
  "samplers": [
    {
      "magFilter": 9729,
      "minFilter": 9987,
      "wrapS": 10497,
      "wrapT": 10497
    }
  ],
  "scene": 0,
  "scenes": [
    {
      "name": "OSG_Scene",
      "nodes": [
        0
      ]
    }
  ],
  "textures": [
    {
      "sampler": 0,
      "source": 0
    }
  ]
}

